<svg width="120" height="40" viewBox="0 0 120 40" fill="none" xmlns="http://www.w3.org/2000/svg">
<rect x="0.5" y="0.5" width="119" height="39" rx="5.5" fill="black"/>
<rect x="0.5" y="0.5" width="119" height="39" rx="5.5" stroke="#A6A6A6"/>
<path d="M24.7045 20.7631C24.7166 19.8432 24.9669 18.9412 25.4321 18.1411C25.8972 17.341 26.5621 16.6688 27.3648 16.187C26.8548 15.4759 26.1821 14.8908 25.4 14.478C24.6178 14.0652 23.7479 13.8361 22.8592 13.809C20.9635 13.6147 19.1258 14.9164 18.1598 14.9164C17.1751 14.9164 15.6878 13.8282 14.0862 13.8604C13.0502 13.8931 12.0406 14.1872 11.1557 14.7141C10.2708 15.241 9.54075 15.9826 9.03674 16.8669C6.85352 20.5573 8.48201 25.9809 10.5734 28.964C11.6197 30.4247 12.8426 32.0563 14.4428 31.9985C16.0086 31.9351 16.5934 31.0237 18.4835 31.0237C20.3561 31.0237 20.9048 31.9985 22.5374 31.9617C24.2176 31.9351 25.2762 30.4945 26.2859 29.0199C27.0377 27.9791 27.6162 26.8288 28 25.6116C27.0238 25.2085 26.1908 24.5338 25.6048 23.6716C25.0187 22.8094 24.7056 21.7979 24.7045 20.7631Z" fill="white"/>
<path d="M21.6208 11.8471C22.5369 10.7734 22.9883 9.39335 22.879 8C21.4793 8.14352 20.1865 8.7966 19.258 9.82911C18.804 10.3335 18.4563 10.9203 18.2348 11.556C18.0132 12.1917 17.9222 12.8638 17.9669 13.5338C18.6669 13.5408 19.3595 13.3927 19.9924 13.1005C20.6253 12.8084 21.1821 12.3798 21.6208 11.8471Z" fill="white"/>
<path d="M36.8086 14.5V8.15869H38.9839C39.6108 8.15869 40.147 8.28467 40.5923 8.53662C41.0405 8.78564 41.3833 9.146 41.6206 9.61768C41.8579 10.0894 41.9766 10.6577 41.9766 11.3228V11.3315C41.9766 11.9966 41.8579 12.5664 41.6206 13.041C41.3833 13.5127 41.042 13.8745 40.5967 14.1265C40.1514 14.3755 39.6138 14.5 38.9839 14.5H36.8086ZM37.5996 13.7881H38.9312C39.4028 13.7881 39.8057 13.6914 40.1396 13.498C40.4736 13.3047 40.7285 13.0249 40.9043 12.6587C41.0801 12.2925 41.168 11.853 41.168 11.3403V11.3315C41.168 10.8159 41.0786 10.375 40.8999 10.0088C40.7241 9.63965 40.4692 9.3584 40.1353 9.16504C39.8013 8.96875 39.3999 8.87061 38.9312 8.87061H37.5996V13.7881ZM45.1978 14.5835C44.7495 14.5835 44.3613 14.4854 44.0332 14.2891C43.708 14.0898 43.4561 13.8071 43.2773 13.4409C43.1016 13.0747 43.0137 12.6396 43.0137 12.1357V12.127C43.0137 11.6201 43.1016 11.1836 43.2773 10.8174C43.4561 10.4512 43.708 10.1699 44.0332 9.97363C44.3613 9.77734 44.7495 9.6792 45.1978 9.6792C45.6489 9.6792 46.0371 9.77734 46.3623 9.97363C46.6875 10.1699 46.938 10.4512 47.1138 10.8174C47.2925 11.1836 47.3818 11.6201 47.3818 12.127V12.1357C47.3818 12.6396 47.2925 13.0747 47.1138 13.4409C46.938 13.8071 46.6875 14.0898 46.3623 14.2891C46.0371 14.4854 45.6489 14.5835 45.1978 14.5835ZM45.1978 13.9067C45.4966 13.9067 45.75 13.8364 45.958 13.6958C46.166 13.5552 46.3242 13.353 46.4326 13.0894C46.5439 12.8257 46.5996 12.5078 46.5996 12.1357V12.127C46.5996 11.752 46.5439 11.4326 46.4326 11.1689C46.3242 10.9053 46.166 10.7046 45.958 10.5669C45.75 10.4263 45.4966 10.356 45.1978 10.356C44.8989 10.356 44.6455 10.4263 44.4375 10.5669C44.2295 10.7046 44.0698 10.9053 43.9585 11.1689C43.8501 11.4326 43.7959 11.752 43.7959 12.127V12.1357C43.7959 12.5078 43.8501 12.8257 43.9585 13.0894C44.0698 13.353 44.2295 13.5552 44.4375 13.6958C44.6455 13.8364 44.8989 13.9067 45.1978 13.9067ZM49.3066 14.5L47.9795 9.7627H48.7441L49.6758 13.5508H49.7461L50.8052 9.7627H51.5303L52.5894 13.5508H52.6597L53.5913 9.7627H54.3516L53.0244 14.5H52.2554L51.1963 10.835H51.126L50.0713 14.5H49.3066ZM55.3623 14.5V9.7627H56.127V10.4746H56.1973C56.3174 10.2227 56.4902 10.0278 56.7158 9.89014C56.9414 9.74951 57.2285 9.6792 57.5771 9.6792C58.1104 9.6792 58.519 9.83154 58.8032 10.1362C59.0903 10.438 59.2339 10.8701 59.2339 11.4326V14.5H58.4692V11.6172C58.4692 11.1895 58.3784 10.873 58.1968 10.668C58.0181 10.46 57.7397 10.356 57.3618 10.356C57.1099 10.356 56.8916 10.4102 56.707 10.5186C56.5225 10.627 56.3789 10.7808 56.2764 10.98C56.1768 11.1792 56.127 11.418 56.127 11.6963V14.5H55.3623ZM60.6621 14.5V7.88184H61.4268V14.5H60.6621ZM64.8413 14.5835C64.3931 14.5835 64.0049 14.4854 63.6768 14.2891C63.3516 14.0898 63.0996 13.8071 62.9209 13.4409C62.7451 13.0747 62.6572 12.6396 62.6572 12.1357V12.127C62.6572 11.6201 62.7451 11.1836 62.9209 10.8174C63.0996 10.4512 63.3516 10.1699 63.6768 9.97363C64.0049 9.77734 64.3931 9.6792 64.8413 9.6792C65.2925 9.6792 65.6807 9.77734 66.0059 9.97363C66.3311 10.1699 66.5815 10.4512 66.7573 10.8174C66.936 11.1836 67.0254 11.6201 67.0254 12.127V12.1357C67.0254 12.6396 66.936 13.0747 66.7573 13.4409C66.5815 13.8071 66.3311 14.0898 66.0059 14.2891C65.6807 14.4854 65.2925 14.5835 64.8413 14.5835ZM64.8413 13.9067C65.1401 13.9067 65.3936 13.8364 65.6016 13.6958C65.8096 13.5552 65.9678 13.353 66.0762 13.0894C66.1875 12.8257 66.2432 12.5078 66.2432 12.1357V12.127C66.2432 11.752 66.1875 11.4326 66.0762 11.1689C65.9678 10.9053 65.8096 10.7046 65.6016 10.5669C65.3936 10.4263 65.1401 10.356 64.8413 10.356C64.5425 10.356 64.2891 10.4263 64.0811 10.5669C63.873 10.7046 63.7134 10.9053 63.6021 11.1689C63.4937 11.4326 63.4395 11.752 63.4395 12.127V12.1357C63.4395 12.5078 63.4937 12.8257 63.6021 13.0894C63.7134 13.353 63.873 13.5552 64.0811 13.6958C64.2891 13.8364 64.5425 13.9067 64.8413 13.9067ZM69.5127 14.5835C69.2139 14.5835 68.9443 14.5264 68.7041 14.4121C68.4668 14.2979 68.2778 14.1353 68.1372 13.9243C67.9995 13.7134 67.9307 13.4644 67.9307 13.1772V13.1685C67.9307 12.8872 67.998 12.647 68.1328 12.4478C68.2676 12.2456 68.4639 12.0874 68.7217 11.9731C68.9795 11.8589 69.2915 11.7915 69.6577 11.771L71.3979 11.6655V12.2764L69.75 12.3818C69.3896 12.4023 69.126 12.4771 68.959 12.606C68.7949 12.7349 68.7129 12.9165 68.7129 13.1509V13.1597C68.7129 13.3999 68.8037 13.5874 68.9854 13.7222C69.167 13.854 69.3955 13.9199 69.6709 13.9199C69.9316 13.9199 70.1631 13.8687 70.3652 13.7661C70.5674 13.6606 70.7256 13.5186 70.8398 13.3398C70.957 13.1611 71.0156 12.959 71.0156 12.7334V11.2568C71.0156 10.9639 70.9263 10.7412 70.7476 10.5889C70.5718 10.4336 70.3066 10.356 69.9521 10.356C69.668 10.356 69.4351 10.4072 69.2534 10.5098C69.0718 10.6094 68.9502 10.7515 68.8887 10.936L68.8843 10.9492H68.1196L68.124 10.9229C68.165 10.6738 68.2676 10.457 68.4316 10.2725C68.5986 10.085 68.814 9.93994 69.0776 9.8374C69.3413 9.73193 69.6416 9.6792 69.9785 9.6792C70.3652 9.6792 70.6919 9.74219 70.9585 9.86816C71.228 9.99414 71.4316 10.1758 71.5693 10.4131C71.71 10.6475 71.7803 10.9287 71.7803 11.2568V14.5H71.0156V13.8013H70.9453C70.8457 13.9683 70.7241 14.1104 70.5806 14.2275C70.4399 14.3447 70.2803 14.4341 70.1016 14.4956C69.9229 14.5542 69.7266 14.5835 69.5127 14.5835ZM74.9268 14.5835C74.5283 14.5835 74.1797 14.4824 73.8809 14.2803C73.582 14.0781 73.3506 13.7939 73.1865 13.4277C73.0225 13.0586 72.9404 12.6279 72.9404 12.1357V12.127C72.9404 11.6318 73.0225 11.2012 73.1865 10.835C73.3506 10.4688 73.5806 10.1846 73.8765 9.98242C74.1753 9.78027 74.5254 9.6792 74.9268 9.6792C75.1436 9.6792 75.3472 9.71436 75.5376 9.78467C75.731 9.85205 75.9023 9.94727 76.0518 10.0703C76.2012 10.1934 76.3184 10.3398 76.4033 10.5098H76.4736V7.88184H77.2383V14.5H76.4736V13.7441H76.4033C76.3066 13.9199 76.1851 14.0708 76.0386 14.1968C75.8921 14.3198 75.7251 14.415 75.5376 14.4824C75.3501 14.5498 75.1465 14.5835 74.9268 14.5835ZM75.1025 13.9067C75.3896 13.9067 75.6372 13.835 75.8452 13.6914C76.0532 13.5479 76.2129 13.3442 76.3242 13.0806C76.4355 12.814 76.4912 12.499 76.4912 12.1357V12.127C76.4912 11.7607 76.4355 11.4458 76.3242 11.1821C76.2129 10.9185 76.0532 10.7148 75.8452 10.5713C75.6372 10.4277 75.3896 10.356 75.1025 10.356C74.8154 10.356 74.5679 10.4277 74.3599 10.5713C74.1548 10.7119 73.9966 10.9141 73.8853 11.1777C73.7769 11.4414 73.7227 11.7578 73.7227 12.127V12.1357C73.7227 12.502 73.7769 12.8184 73.8853 13.085C73.9966 13.3486 74.1548 13.5522 74.3599 13.6958C74.5679 13.8364 74.8154 13.9067 75.1025 13.9067ZM83.1841 14.5835C82.7358 14.5835 82.3477 14.4854 82.0195 14.2891C81.6943 14.0898 81.4424 13.8071 81.2637 13.4409C81.0879 13.0747 81 12.6396 81 12.1357V12.127C81 11.6201 81.0879 11.1836 81.2637 10.8174C81.4424 10.4512 81.6943 10.1699 82.0195 9.97363C82.3477 9.77734 82.7358 9.6792 83.1841 9.6792C83.6353 9.6792 84.0234 9.77734 84.3486 9.97363C84.6738 10.1699 84.9243 10.4512 85.1001 10.8174C85.2788 11.1836 85.3682 11.6201 85.3682 12.127V12.1357C85.3682 12.6396 85.2788 13.0747 85.1001 13.4409C84.9243 13.8071 84.6738 14.0898 84.3486 14.2891C84.0234 14.4854 83.6353 14.5835 83.1841 14.5835ZM83.1841 13.9067C83.4829 13.9067 83.7363 13.8364 83.9443 13.6958C84.1523 13.5552 84.3105 13.353 84.4189 13.0894C84.5303 12.8257 84.5859 12.5078 84.5859 12.1357V12.127C84.5859 11.752 84.5303 11.4326 84.4189 11.1689C84.3105 10.9053 84.1523 10.7046 83.9443 10.5669C83.7363 10.4263 83.4829 10.356 83.1841 10.356C82.8853 10.356 82.6318 10.4263 82.4238 10.5669C82.2158 10.7046 82.0562 10.9053 81.9448 11.1689C81.8364 11.4326 81.7822 11.752 81.7822 12.127V12.1357C81.7822 12.5078 81.8364 12.8257 81.9448 13.0894C82.0562 13.353 82.2158 13.5552 82.4238 13.6958C82.6318 13.8364 82.8853 13.9067 83.1841 13.9067ZM86.5547 14.5V9.7627H87.3193V10.4746H87.3896C87.5098 10.2227 87.6826 10.0278 87.9082 9.89014C88.1338 9.74951 88.4209 9.6792 88.7695 9.6792C89.3027 9.6792 89.7114 9.83154 89.9956 10.1362C90.2827 10.438 90.4263 10.8701 90.4263 11.4326V14.5H89.6616V11.6172C89.6616 11.1895 89.5708 10.873 89.3892 10.668C89.2104 10.46 88.9321 10.356 88.5542 10.356C88.3022 10.356 88.084 10.4102 87.8994 10.5186C87.7148 10.627 87.5713 10.7808 87.4688 10.98C87.3691 11.1792 87.3193 11.418 87.3193 11.6963V14.5H86.5547ZM96.0249 14.5352C95.5386 14.5352 95.1855 14.437 94.9658 14.2407C94.749 14.0444 94.6406 13.7207 94.6406 13.2695V10.3955H93.8936V9.7627H94.6406V8.53662H95.4316V9.7627H96.4688V10.3955H95.4316V13.0762C95.4316 13.3545 95.4844 13.5552 95.5898 13.6782C95.6953 13.7983 95.8711 13.8584 96.1172 13.8584C96.1846 13.8584 96.2417 13.8569 96.2886 13.854C96.3384 13.8511 96.3984 13.8467 96.4688 13.8408V14.4912C96.3955 14.5029 96.3223 14.5132 96.249 14.522C96.1758 14.5308 96.1011 14.5352 96.0249 14.5352ZM97.6553 14.5V7.88184H98.4199V10.4746H98.4902C98.6104 10.2227 98.7832 10.0278 99.0088 9.89014C99.2344 9.74951 99.5215 9.6792 99.8701 9.6792C100.225 9.6792 100.525 9.74805 100.771 9.88574C101.017 10.0205 101.205 10.2183 101.333 10.479C101.462 10.7397 101.527 11.0576 101.527 11.4326V14.5H100.762V11.6172C100.762 11.1895 100.671 10.873 100.49 10.668C100.311 10.46 100.033 10.356 99.6548 10.356C99.4028 10.356 99.1846 10.4102 99 10.5186C98.8154 10.627 98.6719 10.7808 98.5693 10.98C98.4697 11.1792 98.4199 11.418 98.4199 11.6963V14.5H97.6553ZM104.845 14.5835C104.394 14.5835 104.005 14.4839 103.68 14.2847C103.358 14.0854 103.109 13.8042 102.933 13.4409C102.76 13.0747 102.674 12.644 102.674 12.1489V12.1445C102.674 11.6553 102.76 11.2261 102.933 10.8569C103.109 10.4878 103.356 10.1992 103.676 9.99121C103.995 9.7832 104.369 9.6792 104.796 9.6792C105.227 9.6792 105.596 9.77881 105.904 9.97803C106.214 10.1772 106.452 10.4556 106.616 10.813C106.783 11.1675 106.866 11.5806 106.866 12.0522V12.3511H103.069V11.7402H106.475L106.097 12.2983V11.9951C106.097 11.623 106.042 11.3169 105.93 11.0767C105.819 10.8364 105.665 10.6577 105.469 10.5405C105.272 10.4204 105.047 10.3604 104.792 10.3604C104.537 10.3604 104.309 10.4233 104.106 10.5493C103.907 10.6724 103.749 10.8555 103.632 11.0986C103.515 11.3418 103.456 11.6406 103.456 11.9951V12.2983C103.456 12.6353 103.513 12.9238 103.627 13.1641C103.742 13.4014 103.904 13.5845 104.115 13.7134C104.326 13.8394 104.575 13.9023 104.862 13.9023C105.076 13.9023 105.262 13.873 105.42 13.8145C105.579 13.7559 105.709 13.6812 105.812 13.5903C105.914 13.4995 105.986 13.4072 106.027 13.3135L106.044 13.2739H106.809L106.8 13.3091C106.759 13.4702 106.686 13.627 106.581 13.7793C106.478 13.9287 106.345 14.0649 106.181 14.188C106.017 14.3081 105.822 14.4048 105.596 14.478C105.374 14.5483 105.123 14.5835 104.845 14.5835Z" fill="white"/>
<path d="M38.2061 30.5H36.1758L40.3066 18.5029H42.5391L46.6611 30.5H44.5518L43.4883 27.1777H39.2783L38.2061 30.5ZM41.4316 20.5771H41.3525L39.7266 25.6484H43.04L41.4316 20.5771ZM52.2644 30.6318C51.0603 30.6318 50.1462 30.0605 49.654 29.208H49.5837V33.585H47.6325V21.21H49.531V22.5723H49.6013C50.1111 21.6846 51.0603 21.0869 52.3083 21.0869C54.3913 21.0869 55.8767 22.6602 55.8767 25.4375V26.2637C55.8767 29.0234 54.4089 30.6318 52.2644 30.6318ZM51.8161 29.0234C53.0554 29.0234 53.8991 28.0303 53.8991 26.1582V25.5078C53.8991 23.7061 53.1081 22.6777 51.781 22.6777C50.4187 22.6777 49.5661 23.7852 49.5661 25.499V26.1582C49.5661 27.916 50.4275 29.0234 51.8161 29.0234ZM62.183 30.6318C60.9789 30.6318 60.0649 30.0605 59.5727 29.208H59.5024V33.585H57.5512V21.21H59.4496V22.5723H59.52C60.0297 21.6846 60.9789 21.0869 62.227 21.0869C64.31 21.0869 65.7954 22.6602 65.7954 25.4375V26.2637C65.7954 29.0234 64.3276 30.6318 62.183 30.6318ZM61.7348 29.0234C62.9741 29.0234 63.8178 28.0303 63.8178 26.1582V25.5078C63.8178 23.7061 63.0268 22.6777 61.6996 22.6777C60.3373 22.6777 59.4848 23.7852 59.4848 25.499V26.1582C59.4848 27.916 60.3461 29.0234 61.7348 29.0234ZM69.8387 27.1689H71.7899C71.8778 28.2061 72.7919 29.0938 74.4882 29.0938C76.0438 29.0938 76.9667 28.3643 76.9667 27.2305C76.9667 26.3164 76.3514 25.8242 75.0682 25.5166L73.0995 25.0244C71.5526 24.6641 70.1639 23.7412 70.1639 21.79C70.1639 19.4961 72.1679 18.2393 74.497 18.2393C76.8261 18.2393 78.7684 19.4961 78.8124 21.7373H76.8964C76.8085 20.7178 76.0262 19.874 74.4706 19.874C73.0995 19.874 72.1679 20.5244 72.1679 21.6406C72.1679 22.4229 72.7128 22.9854 73.829 23.2402L75.7889 23.7236C77.5907 24.1631 78.9618 25.0156 78.9618 27.0547C78.9618 29.4102 77.0546 30.7373 74.3387 30.7373C70.9989 30.7373 69.8827 28.7861 69.8387 27.1689ZM81.3395 21.21V18.9512H83.2555V21.21H85.066V22.7744H83.2555V27.7314C83.2555 28.7422 83.6334 29.0234 84.6793 29.0234C84.8463 29.0234 85.0045 29.0234 85.1188 29.0059V30.5C84.9605 30.5264 84.5914 30.5615 84.1959 30.5615C81.9371 30.5615 81.3131 29.7529 81.3131 27.8896V22.7744H80.0299V21.21H81.3395ZM90.3353 21.0518C93.0071 21.0518 94.4573 22.9326 94.4573 25.4639V26.2109C94.4573 28.8301 93.0159 30.6582 90.3353 30.6582C87.6546 30.6582 86.1956 28.8301 86.1956 26.2109V25.4639C86.1956 22.9414 87.6634 21.0518 90.3353 21.0518ZM90.3353 22.6162C88.8851 22.6162 88.1644 23.8027 88.1644 25.4902V26.2021C88.1644 27.8633 88.8763 29.085 90.3353 29.085C91.7943 29.085 92.4974 27.8721 92.4974 26.2021V25.4902C92.4974 23.7939 91.7855 22.6162 90.3353 22.6162ZM96.1055 30.5V21.21H98.0567V22.4316H98.127C98.3643 21.8516 99.0586 21.0781 100.351 21.0781C100.606 21.0781 100.825 21.0957 101.01 21.1309V22.8535C100.843 22.8096 100.5 22.7832 100.175 22.7832C98.6104 22.7832 98.083 23.75 98.083 24.998V30.5H96.1055ZM105.743 30.6582C103.256 30.6582 101.674 29.0146 101.674 26.2637V25.3232C101.674 22.7305 103.22 21.0518 105.664 21.0518C108.142 21.0518 109.636 22.792 109.636 25.4111V26.2988H103.598V26.5186C103.598 28.083 104.442 29.1201 105.769 29.1201C106.762 29.1201 107.439 28.6279 107.677 27.8281H109.531C109.25 29.3311 108.037 30.6582 105.743 30.6582ZM103.598 24.9365H107.729V24.9189C107.729 23.6006 106.912 22.5635 105.673 22.5635C104.416 22.5635 103.598 23.6006 103.598 24.9189V24.9365Z" fill="white"/>
</svg>
