<svg width="40" height="40" viewBox="0 0 40 40" fill="none" xmlns="http://www.w3.org/2000/svg">
<path d="M21.0334 10.7876C20.9805 11.9125 19.3702 11.9125 19.3174 10.7876L18.9953 1.20236C18.9953 -0.398383 21.3554 -0.40319 21.3554 1.20236L21.0334 10.7876Z" fill="#121212"/>
<path d="M20.173 40C19.6394 40 19.2116 39.5722 19.2116 39.0386V37.6109C19.2116 37.0821 19.6442 36.6495 20.173 36.6495C20.7017 36.6495 21.1343 37.0773 21.1343 37.6109V39.0386C21.1343 39.5674 20.7017 40 20.173 40Z" fill="#121212"/>
<path d="M21.2833 34.7171C21.3025 36.1736 19.1636 36.2553 19.0722 34.8036C19.0722 34.7747 19.2885 29.1217 19.2885 29.1217C19.3462 28.0016 20.9997 28.0064 21.0574 29.1217L21.2833 34.7219V34.7171Z" fill="#121212"/>
<path d="M25.1335 39.3414C24.7105 39.3414 24.3211 39.0578 24.2058 38.63L23.951 37.7215C23.8116 37.2071 24.1193 36.6831 24.6336 36.5437C25.1479 36.4091 25.6766 36.712 25.8112 37.2215L26.066 38.1301C26.2054 38.6444 25.8977 39.1684 25.3834 39.3078C25.3017 39.3318 25.2152 39.3414 25.1335 39.3414Z" fill="#121212"/>
<path d="M25.2056 34.3902C25.6045 35.8419 23.4511 36.4236 23.0666 34.9622L21.6534 29.0448C21.4179 27.9487 23.0185 27.5209 23.3646 28.5881L25.2056 34.3902Z" fill="#121212"/>
<path d="M15.2221 9.63872C15.7893 10.7251 14.2175 11.6336 13.5541 10.6001L9.67033 4.32694C8.86761 2.94251 10.9105 1.76479 11.7132 3.14921L15.2173 9.64353L15.2221 9.63872Z" fill="#121212"/>
<path d="M15.6643 13.2632C15.3422 13.2632 15.025 13.095 14.852 12.7969L14.7654 12.6431C14.5059 12.1961 14.6597 11.624 15.1067 11.3644C15.5537 11.1049 16.1257 11.2587 16.3853 11.7058L16.4718 11.8596C16.7314 12.3066 16.5776 12.8787 16.1305 13.1382C15.9815 13.2248 15.8229 13.2632 15.6643 13.2632Z" fill="#121212"/>
<path d="M29.9979 37.2888C29.6566 37.3032 29.3153 37.1446 29.1182 36.837L28.8827 36.4668C28.5895 36.0102 28.7193 35.3997 29.1807 35.1016C29.6422 34.8036 30.2526 34.943 30.5458 35.3997L30.7813 35.7698C31.0746 36.2265 30.9448 36.837 30.4833 37.135C30.3343 37.2311 30.1661 37.284 29.9979 37.2888Z" fill="#121212"/>
<path d="M29.1903 32.8375C29.9498 34.1354 28.0223 35.2506 27.2725 33.9431L24.0135 28.3525C23.4992 27.3527 24.9172 26.5259 25.5228 27.468L29.1855 32.8375H29.1903Z" fill="#121212"/>
<path d="M12.4053 11.0135C13.2321 11.9173 11.9487 13.1959 11.045 12.3739L5.93072 7.58131C4.79634 6.45165 6.46427 4.78361 7.59865 5.91807L12.4053 11.0183V11.0135Z" fill="#121212"/>
<path d="M13.7993 14.6909C13.559 14.6909 13.3186 14.5996 13.136 14.4169L12.7851 14.0804C12.4198 13.7151 12.4198 13.1238 12.7851 12.7585C13.1504 12.3932 13.7416 12.3932 14.1117 12.7585L14.4626 13.095C14.8279 13.4603 14.8279 14.0516 14.4626 14.4169C14.28 14.5996 14.0396 14.6909 13.7993 14.6909Z" fill="#121212"/>
<path d="M32.7377 30.0975C33.7807 31.107 32.3051 32.6837 31.2236 31.7079C31.137 31.6309 26.1237 27.1364 26.0468 27.0594C25.2873 26.2278 26.4313 25.0886 27.2628 25.8481L32.7377 30.0975Z" fill="#121212"/>
<path d="M9.92989 13.1094C10.9633 13.768 10.0549 15.3351 8.96855 14.7726L3.16687 11.6817C1.77293 10.8837 2.95538 8.83595 4.34451 9.64353L9.92989 13.1094Z" fill="#121212"/>
<path d="M12.8091 14.8592C13.2129 15.138 13.309 15.6908 13.0302 16.0946C12.7803 16.4551 12.3092 16.5705 11.9247 16.3926L11.1893 16.0705C9.96354 15.436 10.9874 13.6622 12.1506 14.4073L12.8091 14.864V14.8592Z" fill="#121212"/>
<path d="M36.6503 27.5305C37.9289 28.2564 36.8041 30.0783 35.4871 29.4149C35.3862 29.3668 27.7627 25.3433 27.6714 25.2953C26.7197 24.6896 27.532 23.3099 28.5366 23.8291L36.6503 27.5353V27.5305Z" fill="#121212"/>
<path d="M7.91589 15.8494C8.4254 16.0032 8.70899 16.5416 8.55518 17.0512C8.40617 17.5367 7.90627 17.8155 7.4208 17.7049L1.55663 16.3638C-0.000743697 15.9552 0.609707 13.6622 2.16708 14.09L7.91589 15.8542V15.8494Z" fill="#121212"/>
<path d="M10.4394 16.5224L11.694 16.9358C12.737 17.2915 12.3092 18.8538 11.2373 18.6423L9.94431 18.3779C8.63689 18.0655 9.15121 16.1426 10.4442 16.5224H10.4394Z" fill="#121212"/>
<path d="M38.3471 23.4878C39.6785 23.858 39.1498 25.9586 37.8087 25.6173L28.7722 23.2042C27.6762 22.8725 28.0896 21.3391 29.2048 21.5986L38.3471 23.4878Z" fill="#121212"/>
<path d="M29.2624 20.9641C28.7721 20.9545 28.3876 20.5844 28.3972 20.0988C28.4068 19.6278 28.7914 19.272 29.2624 19.2576L38.8806 18.9884C40.3707 18.9932 40.3755 21.2381 38.8806 21.2477L29.2624 20.9641Z" fill="#121212"/>
<path d="M1.21535 21.3006C-0.342019 21.3246 -0.433347 19.0461 1.11922 18.9452C1.14806 18.9452 6.61327 19.1615 6.61327 19.1615C7.82937 19.224 7.82456 21.017 6.61327 21.0843L1.21054 21.3006H1.21535Z" fill="#121212"/>
<path d="M9.26176 21.0795C8.72822 21.1035 8.2812 20.6901 8.26197 20.1565C8.23794 19.5989 8.70419 19.1326 9.26176 19.1567L11.1604 19.2336C12.2804 19.2961 12.2756 20.9401 11.1604 20.9978L9.26176 21.0747V21.0795Z" fill="#121212"/>
<path d="M2.14785 26.0836C0.739488 26.4682 0.12423 24.4252 1.50856 23.9685C1.52779 23.9637 1.55182 23.9541 1.57585 23.9493L6.11818 22.8821C7.31986 22.6177 7.78611 24.3675 6.61808 24.7376L2.14785 26.0788V26.0836Z" fill="#121212"/>
<path d="M9.46364 24.1079C8.88684 24.3194 8.24755 24.0262 8.03606 23.4494C7.79091 22.81 8.2139 22.0842 8.88684 21.9736L11.2325 21.5938C12.29 21.4208 12.6889 22.9302 11.6891 23.3003L9.45884 24.1079H9.46364Z" fill="#121212"/>
<path d="M4.30606 30.5349C3.00344 31.2993 1.88348 29.3716 3.20052 28.6217L6.66615 26.7902C7.75727 26.2326 8.65131 27.7949 7.62749 28.4535L4.30606 30.5349Z" fill="#121212"/>
<path d="M10.1846 27.1364C8.858 27.9632 7.69959 25.9586 9.07911 25.2232L11.9247 23.8531C12.91 23.3821 13.708 24.7713 12.8091 25.3818L10.1846 27.1364Z" fill="#121212"/>
<path d="M9.63188 32.0011L7.55058 34.2796C7.1372 34.7315 6.44023 34.7651 5.9884 34.3517C5.50773 33.9191 5.50773 33.15 5.9884 32.7173L8.27158 30.6407C9.18005 29.8379 10.4346 31.0974 9.63188 32.0011Z" fill="#121212"/>
<path d="M11.6843 30.1408C10.6942 31.2031 9.07911 29.761 10.0356 28.665C10.0645 28.6362 13.1696 25.8577 13.1696 25.8577C14.0012 25.127 15.1452 26.2807 14.4194 27.1075L11.6795 30.1408H11.6843Z" fill="#121212"/>
<path d="M25.4651 12.6287C24.8595 13.5805 23.4223 12.7585 23.9414 11.7586L28.628 3.14921C29.4259 1.76479 31.4735 2.94251 30.6708 4.32694L25.4603 12.6335L25.4651 12.6287Z" fill="#121212"/>
<path d="M12.7274 34.9093L11.5882 37.0196C11.319 37.5196 10.6894 37.707 10.1895 37.4378C9.66553 37.159 9.48768 36.4909 9.80011 35.9909L11.0595 33.9479C11.7228 32.9096 13.2946 33.823 12.7274 34.9093Z" fill="#121212"/>
<path d="M14.2127 32.6308C13.5109 33.9047 11.6074 32.924 12.2467 31.6117C12.2611 31.5829 14.8952 27.468 14.8952 27.468C15.5105 26.5403 16.9284 27.3623 16.4286 28.3525L14.2127 32.6308Z" fill="#121212"/>
<path d="M23.4271 11.3404C23.0858 12.4124 21.4948 11.9846 21.74 10.8837L23.9414 1.54366C24.3548 0.000601573 26.638 0.606289 26.2198 2.15416L23.4271 11.3404Z" fill="#121212"/>
<path d="M16.6785 36.8418L16.2603 38.6588C16.1353 39.2116 15.5778 39.5626 15.025 39.4328C14.4434 39.303 14.0877 38.6925 14.2655 38.1253L14.8183 36.3418C15.1932 35.1785 16.9333 35.6496 16.6785 36.837V36.8418Z" fill="#121212"/>
<path d="M17.5245 34.2315C17.1688 35.6448 15.0827 35.1785 15.3663 33.746C15.3711 33.7172 16.9861 28.5833 16.9861 28.5833C17.3322 27.5209 18.9232 27.9487 18.6973 29.0399L17.5293 34.2315H17.5245Z" fill="#121212"/>
<path d="M18.1301 8.88401C18.3993 10.081 16.6689 10.5569 16.2988 9.38875L14.1309 2.15416C13.7176 0.611096 15.9959 0.000601573 16.4093 1.54366L18.1301 8.88401Z" fill="#121212"/>
<path d="M17.8417 12.2345C18.3594 12.2345 18.779 11.817 18.779 11.302C18.779 10.7869 18.3594 10.3694 17.8417 10.3694C17.3241 10.3694 16.9044 10.7869 16.9044 11.302C16.9044 11.817 17.3241 12.2345 17.8417 12.2345Z" fill="#121212"/>
<path d="M33.8192 33.9191C34.3979 33.9191 34.867 33.4499 34.867 32.8712C34.867 32.2924 34.3979 31.8232 33.8192 31.8232C33.2405 31.8232 32.7713 32.2924 32.7713 32.8712C32.7713 33.4499 33.2405 33.9191 33.8192 33.9191Z" fill="#121212"/>
</svg>
