<svg width="120" height="40" viewBox="0 0 120 40" fill="none" xmlns="http://www.w3.org/2000/svg">
<rect x="0.5" y="0.5" width="119" height="39" rx="5.5" fill="black"/>
<rect x="0.5" y="0.5" width="119" height="39" rx="5.5" stroke="#A6A6A6"/>
<path d="M17.8048 19.4617L8.0896 30.0059C8.09051 30.0078 8.09051 30.0106 8.09142 30.0125C8.38981 31.1574 9.41179 32 10.6254 32C11.1108 32 11.5662 31.8656 11.9567 31.6305L11.9877 31.6118L22.9229 25.1593L17.8048 19.4617Z" fill="#EA4335"/>
<path d="M27.6331 17.6662L27.624 17.6597L22.9028 14.8612L17.5839 19.7013L22.922 25.1582L27.6176 22.3878C28.4407 21.9324 29 21.045 29 20.0223C29 19.0052 28.4489 18.1225 27.6331 17.6662Z" fill="#FBBC04"/>
<path d="M8.08942 9.99337C8.03102 10.2136 8 10.445 8 10.6839V29.3164C8 29.5553 8.03102 29.7867 8.09034 30.006L18.1386 19.7314L8.08942 9.99337Z" fill="#4285F4"/>
<path d="M17.8766 19.9999L22.9044 14.8593L11.982 8.38348C11.585 8.13993 11.1215 7.99996 10.626 7.99996C9.4124 7.99996 8.38859 8.84444 8.09021 9.99031C8.09021 9.99124 8.08929 9.99217 8.08929 9.99311L17.8766 19.9999Z" fill="#34A853"/>
<path d="M39.8184 15.166C39.3301 15.166 38.889 15.0798 38.4951 14.9072C38.1045 14.7347 37.7692 14.4873 37.4893 14.165C37.2126 13.8428 36.9993 13.4554 36.8496 13.0029C36.6999 12.5505 36.625 12.0426 36.625 11.4795V11.4697C36.625 10.7275 36.7568 10.0814 37.0205 9.53125C37.2842 8.97786 37.6553 8.5498 38.1338 8.24707C38.6156 7.94108 39.1771 7.78809 39.8184 7.78809C40.3392 7.78809 40.8031 7.88086 41.21 8.06641C41.6201 8.2487 41.957 8.50586 42.2207 8.83789C42.4876 9.16992 42.6667 9.55892 42.7578 10.0049L42.7676 10.0537H41.8789L41.8643 10.0049C41.721 9.54915 41.4753 9.20085 41.127 8.95996C40.7786 8.71908 40.3424 8.59863 39.8184 8.59863C39.3529 8.59863 38.9476 8.71745 38.6025 8.95508C38.2607 9.18945 37.9954 9.52148 37.8066 9.95117C37.6178 10.3809 37.5234 10.887 37.5234 11.4697V11.4795C37.5234 11.9222 37.5755 12.321 37.6797 12.6758C37.7871 13.0306 37.9401 13.3333 38.1387 13.584C38.3405 13.8314 38.583 14.0218 38.8662 14.1553C39.1494 14.2887 39.4684 14.3555 39.8232 14.3555C40.2432 14.3555 40.611 14.2725 40.9268 14.1064C41.2458 13.9372 41.4932 13.7028 41.6689 13.4033C41.8447 13.1038 41.9326 12.7555 41.9326 12.3584V12.1875H39.9551V11.416H42.8115V12.2754C42.8115 12.7083 42.7399 13.1022 42.5967 13.457C42.4567 13.8118 42.2549 14.1178 41.9912 14.375C41.7275 14.6289 41.4118 14.8242 41.0439 14.9609C40.6761 15.0977 40.2676 15.166 39.8184 15.166ZM44.3691 15V7.9541H48.7344V8.74512H45.248V11.0059H48.5537V11.7871H45.248V14.209H48.7344V15H44.3691ZM52.1572 15V8.74512H49.8867V7.9541H55.3066V8.74512H53.0361V15H52.1572ZM59.4766 15V7.9541H60.3555V15H59.4766ZM63.9834 15V8.74512H61.7129V7.9541H67.1328V8.74512H64.8623V15H63.9834ZM74.2617 15.166C73.5879 15.166 73.0101 15.0163 72.5283 14.7168C72.0465 14.4141 71.6755 13.986 71.415 13.4326C71.1579 12.8792 71.0293 12.2282 71.0293 11.4795V11.4697C71.0293 10.7145 71.1595 10.0618 71.4199 9.51172C71.6836 8.96159 72.0563 8.53678 72.5381 8.2373C73.0231 7.93783 73.5977 7.78809 74.2617 7.78809C74.929 7.78809 75.5036 7.93783 75.9854 8.2373C76.4704 8.53678 76.8431 8.96322 77.1035 9.5166C77.3639 10.0667 77.4941 10.7178 77.4941 11.4697V11.4795C77.4941 12.2282 77.3639 12.8792 77.1035 13.4326C76.8464 13.9827 76.4753 14.4092 75.9902 14.7119C75.5085 15.0146 74.9323 15.166 74.2617 15.166ZM74.2617 14.3555C74.7435 14.3555 75.1585 14.2367 75.5068 13.999C75.8551 13.7614 76.1237 13.4277 76.3125 12.998C76.5013 12.5651 76.5957 12.0589 76.5957 11.4795V11.4697C76.5957 10.8838 76.5013 10.376 76.3125 9.94629C76.1237 9.5166 75.8551 9.18457 75.5068 8.9502C75.1585 8.71582 74.7435 8.59863 74.2617 8.59863C73.7832 8.59863 73.3698 8.71582 73.0215 8.9502C72.6732 9.18457 72.403 9.5166 72.2109 9.94629C72.0221 10.376 71.9277 10.8838 71.9277 11.4697V11.4795C71.9277 12.0589 72.0205 12.5651 72.2061 12.998C72.3916 13.4277 72.6585 13.7614 73.0068 13.999C73.3551 14.2367 73.7734 14.3555 74.2617 14.3555ZM79.0176 15V7.9541H79.8721L83.9102 13.7451L83.3242 13.4375H83.7734V7.9541H84.6426V15H83.7881L79.75 9.22852L80.3359 9.53613H79.8867V15H79.0176Z" fill="white"/>
<path d="M93.5181 31.4097H95.1469V20.3981H93.5181V31.4097ZM108.189 24.3646L106.322 29.1388H106.266L104.328 24.3646H102.573L105.479 31.0371L103.823 34.749H105.521L110 24.3646H108.189ZM98.9519 30.1588C98.4176 30.1588 97.6739 29.8902 97.6739 29.2234C97.6739 28.3742 98.6001 28.0483 99.4005 28.0483C100.116 28.0483 100.454 28.2042 100.889 28.4165C100.762 29.4365 99.892 30.1588 98.9519 30.1588ZM99.1483 24.1241C97.969 24.1241 96.7469 24.6482 96.2424 25.8101L97.6879 26.4188C97.9969 25.8101 98.5721 25.611 99.1762 25.611C100.019 25.611 100.875 26.121 100.889 27.0283V27.1411C100.594 26.971 99.9627 26.7165 99.1902 26.7165C97.632 26.7165 96.0451 27.5806 96.0451 29.1952C96.0451 30.6689 97.323 31.6184 98.7546 31.6184C99.8501 31.6184 100.454 31.1225 100.833 30.5411H100.889V31.3912H102.461V27.1692C102.461 25.2146 101.015 24.1241 99.1483 24.1241M89.0821 25.7053H86.7655V21.9308H89.0821C90.2998 21.9308 90.9911 22.9482 90.9911 23.8176C90.9911 24.6711 90.2998 25.7053 89.0821 25.7053ZM89.0402 20.3981H85.1375V31.4097H86.7655V27.2379H89.0402C90.8453 27.2379 92.6199 25.9184 92.6199 23.8176C92.6199 21.7168 90.8453 20.3981 89.0402 20.3981M67.7583 30.1606C66.6332 30.1606 65.6913 29.2102 65.6913 27.9047C65.6913 26.5852 66.6332 25.6198 67.7583 25.6198C68.8695 25.6198 69.7406 26.5852 69.7406 27.9047C69.7406 29.2102 68.8695 30.1606 67.7583 30.1606ZM69.6289 24.9812H69.5722C69.2064 24.5417 68.5038 24.1444 67.6178 24.1444C65.7611 24.1444 64.0599 25.7898 64.0599 27.9047C64.0599 30.0047 65.7611 31.6369 67.6178 31.6369C68.5038 31.6369 69.2064 31.2396 69.5722 30.7851H69.6289V31.3251C69.6289 32.7582 68.8695 33.5246 67.6457 33.5246C66.6471 33.5246 66.0282 32.8005 65.7751 32.1901L64.3549 32.7864C64.7626 33.78 65.8458 35 67.6457 35C69.5582 35 71.1757 33.8646 71.1757 31.0978V24.3708H69.6289V24.9812ZM72.3008 31.4097H73.9322V20.3973H72.3008V31.4097ZM76.3362 27.777C76.2943 26.3298 77.4474 25.5916 78.2766 25.5916C78.9243 25.5916 79.4725 25.9176 79.6549 26.3862L76.3362 27.777ZM81.3989 26.528C81.0899 25.6912 80.1472 24.1444 78.2208 24.1444C76.3083 24.1444 74.7196 25.6621 74.7196 27.8907C74.7196 29.9906 76.2943 31.6369 78.4032 31.6369C80.1053 31.6369 81.0899 30.5869 81.4976 29.9765L80.2319 29.1247C79.8103 29.7493 79.2333 30.1606 78.4032 30.1606C77.5739 30.1606 76.983 29.7774 76.6033 29.0261L81.5674 26.9534L81.3989 26.528ZM41.8501 25.2939V26.883H45.6184C45.5058 27.777 45.2107 28.4297 44.7612 28.8834C44.2121 29.4374 43.3541 30.0479 41.8501 30.0479C39.5291 30.0479 37.7152 28.1602 37.7152 25.8189C37.7152 23.4767 39.5291 21.5899 41.8501 21.5899C43.1018 21.5899 44.0157 22.0867 44.6905 22.7254L45.8017 21.604C44.8589 20.6959 43.6081 20 41.8501 20C38.6719 20 36 22.6117 36 25.8189C36 29.0261 38.6719 31.6369 41.8501 31.6369C43.5653 31.6369 44.8589 31.0688 45.8715 30.0047C46.9129 28.9547 47.2358 27.4793 47.2358 26.2866C47.2358 25.9176 47.2079 25.5775 47.1512 25.2939H41.8501ZM51.5208 30.1606C50.3957 30.1606 49.425 29.2243 49.425 27.8907C49.425 26.5421 50.3957 25.6198 51.5208 25.6198C52.6451 25.6198 53.6158 26.5421 53.6158 27.8907C53.6158 29.2243 52.6451 30.1606 51.5208 30.1606ZM51.5208 24.1444C49.4669 24.1444 47.7936 25.7194 47.7936 27.8907C47.7936 30.0479 49.4669 31.6369 51.5208 31.6369C53.5739 31.6369 55.2472 30.0479 55.2472 27.8907C55.2472 25.7194 53.5739 24.1444 51.5208 24.1444ZM59.65 30.1606C58.5249 30.1606 57.5542 29.2243 57.5542 27.8907C57.5542 26.5421 58.5249 25.6198 59.65 25.6198C60.7752 25.6198 61.745 26.5421 61.745 27.8907C61.745 29.2243 60.7752 30.1606 59.65 30.1606ZM59.65 24.1444C57.597 24.1444 55.9237 25.7194 55.9237 27.8907C55.9237 30.0479 57.597 31.6369 59.65 31.6369C61.7031 31.6369 63.3764 30.0479 63.3764 27.8907C63.3764 25.7194 61.7031 24.1444 59.65 24.1444Z" fill="white"/>
</svg>
